<!--
Symfony icon optimized for dark GitHub profile backgrounds.
Base: devicon symfony-original.svg, with colors inverted (black -> white) and stripped metadata.
-->
<svg xmlns="http://www.w3.org/2000/svg" viewBox="0 0 128 128" role="img" aria-label="Symfony">
  <path fill="#FFFFFF" d="M64 2.3C29.9 2.3 2.3 29.9 2.3 64s27.6 61.7 61.7 61.7 61.7-27.6 61.7-61.7S98.1 2.3 64 2.3zM97.3 38c-2.9.1-4.8-1.6-4.9-4.2 0-1 .2-1.8.9-2.8.6-1.3.8-1.4.7-2 0-1.6-2.6-1.7-3.2-1.7-9.4.3-11.9 12.9-13.9 23.1l-1 5.4c5.4.8 9.2-.2 11.4-1.6 3-2-1-4-0.4-6.2.5-2.3 2.6-3.4 4.2-3.4 2.3-.1 4 2.3 3.9 4.7-.1 4-5.4 9.5-16 9.2-1.3 0-2.5-.1-3.6-.3l-2 11c-1.8 8.3-4.2 19.7-12.7 29.6-7.3 8.7-14.7 10-18 10.1-6.2.2-10.3-3.1-10.4-7.5-.1-4.3 3.6-6.6 6.1-6.7 3.3-.1 5.6 2.3 5.7 5.1.1 2.3-1.1 3.1-1.9 3.5-.5.4-1.4.9-1.3 1.8 0 .4.5 1.4 1.8 1.3 2.6-.1 4.4-1.4 5.6-2.3 6-5 8.4-13.8 11.4-29.8l.6-3.9c1-5.2 2.2-11 3.9-16.8-4.2-3.2-6.8-7.2-12.6-8.8-3.9-1.1-6.3-.2-8 2-2 2.5-1.3 5.8.6 7.7l3.2 3.5c3.9 4.5 6 8 5.2 12.7-1.3 7.5-10.2 13.3-20.8 10-9-2.8-10.7-9.2-9.6-12.7 1-3.1 3.4-3.7 5.8-3 2.6.8 3.6 3.9 2.9 6.3-.1.3-.2.7-.5 1.3-.3.7-.9 1.2-1.1 2-.6 1.9 2 3.2 3.8 3.8 4 1.2 8-.9 9-4.1.9-3-1-5.1-1.8-5.9l-3.8-4.1c-1.8-2-5.6-7.4-3.7-13.5.7-2.4 2.3-4.9 4.5-6.5 4.7-3.5 9.8-4.1 14.6-2.7 6.3 1.8 9.3 6 13.2 9.2 2.2-6.4 5.2-12.7 9.8-18 4.1-4.8 9.6-8.3 16-8.5 6.3-.2 11.1 2.7 11.3 7.2.2 4.8-.9 8.6-4.8 8.7z"/>
</svg>
