<!--
Symfony logo optimized for dark GitHub profile backgrounds.
Based on https://symfony.com/logos/symfony_white_03.svg, but stripped of the SVG 1.1 DOCTYPE/metadata
because GitHub's SVG sanitizer/rendering can mis-handle external doctypes and show it incorrectly.
-->
<svg xmlns="http://www.w3.org/2000/svg" viewBox="0 0 202 223.667" role="img" aria-label="Symfony">
  <path fill="#FFFFFF" d="M131.914 0H0v223.667h202V69.869L131.914 0zm-1.827 11.287l60.626 60.626h-60.626V11.287z"/>
  <path fill="#FFFFFF" d="M64.71 137.423c-4.896 0-9.013-.897-12.352-2.693-3.339-1.795-5.735-4.277-7.187-7.446-1.452-3.169-2.178-6.835-2.178-10.998 0-4.163.71-7.828 2.129-10.998 1.419-3.169 3.729-5.651 6.931-7.446 3.202-1.796 7.398-2.693 12.587-2.693 2.97 0 5.765.277 8.386.83 2.62.554 4.983 1.329 7.088 2.326l-2.574 6.49c-1.737-.803-3.636-1.453-5.695-1.952-2.06-.498-4.122-.747-6.187-.747-3.721 0-6.666.624-8.837 1.87-2.171 1.245-3.722 2.987-4.652 5.224-.93 2.238-1.395 4.842-1.395 7.812 0 2.968.474 5.573 1.422 7.811.949 2.238 2.523 3.978 4.723 5.224 2.199 1.246 5.155 1.869 8.867 1.869 2.181 0 4.229-.193 6.145-.581 1.915-.387 3.89-1.023 5.925-1.91v6.82c-2.01.831-4.1 1.438-6.269 1.818-2.169.38-4.628.57-7.378.57z"/>
  <path fill="#FFFFFF" d="M99.842 136.716V95.987h26.383v6.82h-18.55v9.928h17.174v6.78h-17.174v10.381h18.55v6.82H99.842z"/>
  <path fill="#FFFFFF" d="M144.299 95.987h9.093l-15.374 40.729h-8.355l-15.335-40.729h9.135l9.072 27.39c.309.941.614 1.958.915 3.052.301 1.093.579 2.137.833 3.134.254.997.436 1.794.545 2.394.109-.6.285-1.395.526-2.384.241-.99.514-2.034.819-3.134.305-1.1.608-2.122.91-3.062l9.131-27.39z"/>
  <path fill="#FFFFFF" d="M173.309 136.716h-7.832v-40.73h7.832v40.73z"/>
</svg>
