<!--
Xdebug icon for dark GitHub profile backgrounds.
Source: https://cdn.worldvectorlogo.com/logos/xdebug-1.svg
Pinned locally to avoid external flakiness.
-->
<svg xmlns="http://www.w3.org/2000/svg" viewBox="3.1 2.5 344.9 176" role="img" aria-label="Xdebug">
  <g fill="none" fill-rule="evenodd" stroke="#fff">
    <path d="m132.9 90.5 68.2 70.7.4 17.3h-38.6l-60.8-59.7-6.2 6.1 53.8 53.6h-39.5l-40.6-40.6 10.6-10.4-7.6-7.6-38.1 38.1h-27.3l58.1-58.1-62-62h27.6l50.6 50.7 6.2-6.2-44.3-44.5h38.8l30.9 31.1 10.6-10.6-20.6-20.5h38.5l49 49 6.2-6.2-42.7-42.8h38.7l26.7 26.6-.4 17.2-7.8 7.8-38.6-38.6-6.2 6.2 44.8 44.6-10.4 10.5-51.2-51.2-6.2 6.2 45 45z"/>
    <path d="m220.5 2.5 127.5 127.5v48.5h-48.5l-127.5-127.5z"/>
  </g>
</svg>
